<svg width="64" height="64" viewBox="0 0 64 64" fill="none" xmlns="http://www.w3.org/2000/svg">
<circle cx="32" cy="32" r="32" fill="white"/>
<path d="M46 38.8295C46 44.4551 41.3719 49 35.5128 49C29.6537 49 25.0838 44.5682 25.0838 38.8295C25.0838 36.1308 26.1378 33.7451 27.8082 31.9553L20.7201 38.8295L17 35.2217L24.9963 27.5519C26.0795 26.5014 26.6375 25.1361 26.6375 23.6311V14H31.8802V23.6311C31.8802 26.5863 30.797 29.0851 28.6872 31.1313L28.4519 31.3595C30.2974 29.7112 32.8175 28.7173 35.5109 28.7173C41.4575 28.7173 45.9981 33.2905 45.9981 38.8312M41.2533 38.8312C41.2533 35.8196 38.6749 33.3773 35.5109 33.3773C32.347 33.3773 29.8287 35.9344 29.8287 38.8312C29.8287 41.728 32.347 44.3418 35.5109 44.3418C38.6749 44.3418 41.2533 41.7564 41.2533 38.8312Z" fill="black"/>
</svg>
