<svg width="64" height="64" viewBox="0 0 64 64" fill="none" xmlns="http://www.w3.org/2000/svg">
<circle cx="32" cy="32" r="32" fill="white"/>
<path d="M47.6444 30.3137V27.3634H50.7683C52.1192 27.3634 52.9423 27.5904 52.9423 28.8489C52.9423 30.128 52.1192 30.3137 50.7683 30.3137H47.6444ZM42.4099 38.628H47.6444V33.4909H50.7683C52.2036 33.4909 52.9423 33.9448 53.0901 35.7191C53.2167 37.2251 53.3645 38.2154 53.8711 38.628H59V38.5455C58.6202 37.906 58.156 37.3902 57.945 35.3684C57.7757 33.6766 57.1849 32.6863 55.2853 32.1705V32.1292C57.0793 31.5928 58.4303 30.4994 58.4303 28.4569C58.4303 25.2178 55.5596 24.4132 51.7815 24.4132H42.4099V38.628ZM36.732 32.5418V30.4581H39.7081V32.5418H36.732ZM32.1729 34.9145C30.041 34.9145 28.7324 33.7591 28.7324 31.5309C28.7324 29.2615 30.041 28.0855 32.1729 28.0855C34.3258 28.0855 35.6133 29.2615 35.6133 31.5309C35.6133 33.7591 34.3258 34.9145 32.1729 34.9145ZM24.6798 32.5418V30.4581H27.656V32.5418H24.6798ZM6 24.4132L6.04221 38.628H11.2557V33.4084H16.7013V38.628H21.9359V24.4132H16.7013V29.179H11.2557V24.4132H6ZM32.1729 38.9994C37.112 39.0407 41.1012 36.8538 41.1012 31.5309C41.1012 26.2287 37.112 24.0418 32.1729 24.0006C27.2549 23.9593 23.2446 26.2287 23.2446 31.5309C23.2446 36.8538 27.2549 38.9582 32.1729 38.9994Z" fill="black"/>
</svg>
