<svg width="64" height="64" viewBox="0 0 64 64" fill="none" xmlns="http://www.w3.org/2000/svg">
<circle cx="32" cy="32" r="32" fill="white"/>
<path d="M46.9034 25.8449C46.8866 24.5832 46.6504 23.3341 46.2054 22.1534C45.8196 21.1575 45.2302 20.2531 44.4749 19.4978C43.7197 18.7426 42.8153 18.1532 41.8194 17.7673C40.6538 17.3298 39.4225 17.0932 38.1779 17.0677C36.5754 16.9961 36.0673 16.9761 31.9994 16.9761C27.9315 16.9761 27.4101 16.9761 25.8192 17.0677C24.5751 17.0934 23.3444 17.33 22.1794 17.7673C21.1834 18.153 20.2788 18.7422 19.5235 19.4975C18.7682 20.2528 18.179 21.1574 17.7933 22.1534C17.3549 23.318 17.1189 24.549 17.0954 25.7932C17.0237 27.3974 17.0021 27.9055 17.0021 31.9734C17.0021 36.0413 17.0021 36.561 17.0954 38.1536C17.1203 39.3996 17.3552 40.629 17.7933 41.7967C18.1796 42.7924 18.7693 43.6967 19.5248 44.4516C20.2804 45.2066 21.185 45.7956 22.1811 46.1811C23.3429 46.6362 24.5738 46.8897 25.8209 46.9307C27.4251 47.0023 27.9331 47.024 32.0011 47.024C36.069 47.024 36.5904 47.024 38.1812 46.9307C39.4258 46.9062 40.6572 46.6702 41.8227 46.2327C42.8183 45.8464 43.7226 45.2569 44.4777 44.5017C45.2329 43.7465 45.8224 42.8423 46.2088 41.8467C46.6469 40.6806 46.8818 39.4512 46.9067 38.2035C46.9784 36.601 47 36.0929 47 32.0234C46.9967 27.9554 46.9967 27.439 46.9034 25.8449ZM31.9894 39.6661C27.7349 39.6661 24.2883 36.2195 24.2883 31.9651C24.2883 27.7106 27.7349 24.264 31.9894 24.264C34.0318 24.264 35.9906 25.0754 37.4349 26.5196C38.8791 27.9638 39.6904 29.9226 39.6904 31.9651C39.6904 34.0075 38.8791 35.9663 37.4349 37.4105C35.9906 38.8548 34.0318 39.6661 31.9894 39.6661ZM39.997 25.7749C39.7611 25.7751 39.5275 25.7288 39.3095 25.6387C39.0915 25.5485 38.8935 25.4162 38.7267 25.2494C38.5599 25.0826 38.4276 24.8846 38.3375 24.6666C38.2473 24.4486 38.201 24.215 38.2012 23.9792C38.2012 23.7434 38.2476 23.51 38.3378 23.2923C38.428 23.0745 38.5603 22.8766 38.7269 22.71C38.8936 22.5433 39.0915 22.4111 39.3092 22.3209C39.527 22.2307 39.7604 22.1842 39.9961 22.1842C40.2318 22.1842 40.4652 22.2307 40.683 22.3209C40.9008 22.4111 41.0986 22.5433 41.2653 22.71C41.432 22.8766 41.5642 23.0745 41.6544 23.2923C41.7446 23.51 41.791 23.7434 41.791 23.9792C41.791 24.972 40.9881 25.7749 39.997 25.7749Z" fill="black"/>
<path d="M31.9894 36.9675C34.7521 36.9675 36.9918 34.7279 36.9918 31.9651C36.9918 29.2023 34.7521 26.9626 31.9894 26.9626C29.2266 26.9626 26.9869 29.2023 26.9869 31.9651C26.9869 34.7279 29.2266 36.9675 31.9894 36.9675Z" fill="black"/>
</svg>
