<svg width="64" height="64" viewBox="0 0 64 64" fill="none" xmlns="http://www.w3.org/2000/svg">
<circle cx="32" cy="32" r="32" fill="white"/>
<path d="M53.1991 38.7641C53.4921 38.485 53.6772 38.094 53.6772 37.6576C53.6772 37.2375 53.4773 36.86 53.2035 36.5836L40.8714 24.2515L37.1493 27.9737L46.8585 37.6828H33.1025C32.4301 37.6627 31.8972 37.4371 31.4463 37.0002L25.2739 30.8278C24.6339 30.2225 23.7571 29.8396 22.8065 29.8396C22.8031 29.8396 22.8 29.84 22.7971 29.84V29.8396H15.2641V27.2639H23.0659V27.2644C24.6116 27.2651 25.9908 27.8978 27.0017 28.9131L31.6057 33.5171L35.3278 29.7949L30.6343 25.1014C28.6727 23.1695 26.0233 22 23.0526 22C23.0494 22 23.0461 22.0002 23.0429 22.0002V22H10V35.1036H21.0392V35.1044C21.7572 35.1096 22.4054 35.4048 22.8735 35.8791L28.9185 41.9243C29.5334 42.5282 30.3642 42.9089 31.2854 42.9431H47.9844C48.6874 42.9339 49.3223 42.646 49.7857 42.1841L53.2017 38.7684L53.1991 38.7641Z" fill="black"/>
<path d="M43.7451 22C42.8957 22 42.2203 22.701 42.2203 23.5332V23.5414C42.2203 24.3742 42.8866 25.0663 43.7451 25.0663C44.5952 25.0663 45.2692 24.3655 45.2692 23.5332V23.5244C45.2692 22.6918 44.6041 22 43.7451 22ZM45.094 23.5332C45.094 24.2781 44.507 24.8999 43.7451 24.8999C42.9741 24.8999 42.3962 24.2867 42.3962 23.5414V23.5332C42.3962 22.7885 42.9829 22.1667 43.7451 22.1667C44.5158 22.1667 45.094 22.7797 45.094 23.5244V23.5332Z" fill="black"/>
<path d="M43.1787 22.7436H43.919C44.2581 22.7436 44.4317 22.9 44.4317 23.1628C44.4317 23.4601 44.2256 23.5361 44.1754 23.5535V23.5578C44.269 23.5709 44.4057 23.6404 44.4057 23.8859C44.4057 24.0661 44.4318 24.2313 44.4904 24.294H44.1996C44.1583 24.2268 44.1583 24.1424 44.1583 24.0662C44.1583 23.7817 44.0995 23.6557 43.8496 23.6557H43.4504V24.294H43.1788V22.7436H43.1787ZM43.4503 23.4493H43.8955C44.067 23.4493 44.1605 23.3644 44.1605 23.2018C44.1605 23.0043 44.0322 22.965 43.8913 22.965H43.4503V23.4493Z" fill="black"/>
</svg>
