<svg width="64" height="64" viewBox="0 0 64 64" fill="none" xmlns="http://www.w3.org/2000/svg">
<circle cx="32" cy="32" r="32" fill="white"/>
<path d="M11.2519 31.9082C11.1576 31.9082 11.0726 31.991 11.0611 32.0868L10.6154 36.002L11.0611 39.8278C11.0726 39.9346 11.1576 40.0065 11.2519 40.0065C11.3461 40.0065 11.4242 39.9346 11.4449 39.8278L11.9297 36.002L11.4127 32.0868C11.4127 31.9866 11.3277 31.9082 11.2427 31.9082M9.51931 33.4137C9.40212 33.4137 9.34467 33.479 9.3171 33.5858L9 36.002L9.3171 38.3812C9.3171 38.4814 9.40212 38.5511 9.48943 38.5511C9.57905 38.5511 9.65717 38.4683 9.68934 38.3616L10.0938 35.965L9.68934 33.5422C9.68934 33.4311 9.60433 33.3766 9.51701 33.3766M13.0235 31.1434C12.904 31.1434 12.7937 31.2284 12.7937 31.333L12.3893 35.9933L12.8213 40.4619C12.8213 40.5686 12.9063 40.6797 13.0487 40.6797C13.1682 40.6797 13.2533 40.5686 13.2831 40.4619L13.768 35.965L13.2831 31.333C13.2533 31.2262 13.1636 31.1151 13.0487 31.1151M14.864 30.9517C14.7193 30.9517 14.6021 31.0628 14.5745 31.1979L14.2045 35.9933L14.6113 40.6187C14.6388 40.756 14.7514 40.8671 14.8916 40.8671C15.0387 40.8671 15.1512 40.756 15.1788 40.5969L15.6407 35.9933L15.1788 31.2284C15.1794 31.1964 15.1733 31.1646 15.1607 31.1349C15.1481 31.1051 15.1294 31.0781 15.1056 31.0553C15.0819 31.0326 15.0535 31.0146 15.0223 31.0024C14.991 30.9902 14.9575 30.9841 14.9238 30.9844L14.864 30.9517ZM17.0745 31.6075C17.0736 31.5705 17.065 31.534 17.0491 31.5002C17.0332 31.4664 17.0103 31.436 16.9819 31.4106C16.9535 31.3853 16.92 31.3655 16.8834 31.3526C16.8468 31.3396 16.8079 31.3337 16.7689 31.3352C16.6895 31.3333 16.6125 31.3606 16.5538 31.4114C16.4951 31.4621 16.4594 31.5324 16.4541 31.6075L16.0359 36.0216L16.4242 40.6797C16.4239 40.7175 16.4316 40.7549 16.4467 40.7898C16.4619 40.8247 16.4843 40.8564 16.5125 40.883C16.5408 40.9096 16.5744 40.9305 16.6113 40.9446C16.6482 40.9588 16.6877 40.9657 16.7276 40.9651C16.87 40.9651 17.0102 40.8453 17.0102 40.6775L17.4445 36.0173L17.0102 31.5814L17.0745 31.6075ZM18.6232 28.5007C18.5334 28.5039 18.4482 28.5396 18.385 28.6003C18.3219 28.661 18.2854 28.7422 18.2832 28.8275L17.8788 36.0173L18.2372 40.6775C18.2372 40.8453 18.3889 40.976 18.5819 40.976C18.7611 40.976 18.9151 40.8148 18.9266 40.6492L19.3264 35.9933L18.9289 28.7752C18.9128 28.5834 18.7588 28.444 18.5842 28.444M20.4224 26.7838C20.3229 26.7877 20.2282 26.826 20.1563 26.8914C20.0844 26.9568 20.0401 27.0448 20.0318 27.1389L19.6871 35.9911L20.0042 40.6209C20.0042 40.8388 20.1766 41 20.3788 41C20.5764 41 20.7487 40.8388 20.7786 40.6209L21.1508 35.9911L20.7809 27.1629C20.751 26.945 20.5787 26.7816 20.3788 26.7816M22.2768 25.9712C22.0424 25.9712 21.8724 26.1302 21.8448 26.3481L21.5254 35.9345L21.8448 40.5141C21.8724 40.732 22.0424 40.9237 22.2768 40.9237C22.39 40.9204 22.4976 40.8762 22.5776 40.8C22.6575 40.7238 22.7036 40.6215 22.7065 40.5141L23.081 35.9345L22.7042 26.3481C22.7042 26.1302 22.5043 25.9385 22.2722 25.9385M24.6573 26.0213C24.6582 25.9641 24.647 25.9073 24.6244 25.8543C24.6017 25.8013 24.5681 25.7532 24.5255 25.7127C24.4828 25.6723 24.432 25.6404 24.3761 25.6189C24.3202 25.5974 24.2603 25.5868 24.2 25.5877C24.0791 25.5899 23.9636 25.6361 23.8776 25.7169C23.7916 25.7976 23.7417 25.9066 23.7382 26.0213L23.451 35.9083L23.7359 40.4597C23.7704 40.7015 23.968 40.8932 24.2276 40.8932C24.4873 40.8932 24.6895 40.7015 24.6895 40.4597L25.002 35.9083L24.6895 25.9951L24.6573 26.0213ZM26.0934 25.7794C25.8338 25.7794 25.604 25.9973 25.604 26.2391L25.3168 35.9105L25.604 40.4052C25.604 40.6775 25.8338 40.8693 26.0934 40.8693C26.2265 40.8653 26.3526 40.8119 26.4446 40.7206C26.5366 40.6293 26.587 40.5075 26.5852 40.3812L26.8724 35.8844L26.5507 26.237C26.5507 25.9712 26.3209 25.7467 26.0337 25.7467M27.9593 26.0496C27.8877 26.0493 27.8167 26.0625 27.7505 26.0883C27.6843 26.1142 27.6241 26.1522 27.5735 26.2002C27.5229 26.2482 27.4828 26.3052 27.4555 26.368C27.4283 26.4308 27.4144 26.4981 27.4147 26.5659L27.2171 35.9127L27.4767 40.4074C27.4767 40.6775 27.7065 40.9107 28.019 40.9107C28.3062 40.9107 28.5406 40.6928 28.5636 40.3943L28.7957 35.9541L28.5383 26.6618C28.5153 26.3633 28.2787 26.1433 27.9937 26.1433M30.264 24.4308C30.1672 24.377 30.0568 24.3492 29.9446 24.3502C29.8297 24.3502 29.7148 24.3785 29.6298 24.4308C29.5433 24.4781 29.4713 24.546 29.4209 24.6278C29.3706 24.7096 29.3436 24.8024 29.3426 24.897V25.006L29.1449 35.9955L29.3655 40.4466V40.4619C29.3793 40.5708 29.4207 40.7059 29.5034 40.7887C29.6183 40.8998 29.7791 40.976 29.9538 40.976C30.1035 40.9684 30.2458 40.9113 30.3559 40.8148C30.4122 40.761 30.4567 40.697 30.4867 40.6267C30.5167 40.5563 30.5316 40.4811 30.5305 40.4052L30.5604 39.9673L30.7833 35.9628L30.5236 24.9058C30.5223 24.8191 30.4983 24.7341 30.4538 24.6584C30.4093 24.5828 30.3456 24.5188 30.2686 24.4722L30.264 24.4308ZM32.1872 23.4351C32.1518 23.3972 32.1077 23.3673 32.0584 23.3477C32.0091 23.328 31.9557 23.3192 31.9023 23.3218C31.7595 23.3169 31.619 23.3567 31.5025 23.4351C31.4327 23.4877 31.376 23.5542 31.3363 23.6299C31.2966 23.7055 31.2749 23.7885 31.2727 23.873V23.9232L31.0108 35.9345L31.1555 38.1437L31.275 40.2963C31.2787 40.4546 31.3485 40.6051 31.4692 40.7146C31.5898 40.8241 31.7514 40.8836 31.9184 40.8802C32.0854 40.8767 32.2441 40.8105 32.3596 40.6961C32.475 40.5817 32.5379 40.4285 32.5342 40.2701L32.8214 35.8844L32.5342 23.8229C32.5317 23.7202 32.5012 23.6199 32.4456 23.5317C32.39 23.4435 32.3113 23.3704 32.2171 23.3196M49.3404 30.1826C48.5684 30.1826 47.817 30.3395 47.1598 30.6031C47.0203 29.1424 46.5244 27.7324 45.7112 26.4847C44.898 25.2371 43.7898 24.1859 42.4743 23.4142C41.1587 22.6426 39.6719 22.1718 38.1314 22.0389C36.5909 21.906 35.0389 22.1147 33.5981 22.6486C33.1661 22.812 33.0765 22.9776 33.0512 23.3044V40.3246C33.061 40.4837 33.1298 40.6343 33.2455 40.7499C33.3611 40.8656 33.5161 40.9387 33.6831 40.9564H49.3703C50.1091 40.9628 50.842 40.8299 51.5262 40.5656C52.2104 40.3012 52.8325 39.9106 53.3562 39.4164C53.88 38.9223 54.295 38.3344 54.5771 37.6869C54.8593 37.0394 55.003 36.3453 55 35.6447C55.0036 34.2253 54.4126 32.8627 53.3569 31.8564C52.3012 30.8501 50.8672 30.2825 49.3703 30.2785" fill="black"/>
</svg>
