<svg width="64" height="64" viewBox="0 0 64 64" fill="none" xmlns="http://www.w3.org/2000/svg">
<circle cx="32" cy="32" r="32" fill="white"/>
<path d="M32.0008 16C23.2004 16 16 23.2004 16 32.0008C16 40.7996 23.2004 48 32.0008 48C40.7996 48 48 40.7996 48 32.0008C48 23.2004 40.8796 16 32.0008 16ZM39.3598 39.1196C39.0411 39.5984 38.4806 39.7602 37.9985 39.4415C34.2365 37.1193 29.5168 36.6388 23.9163 37.9184C23.359 38.0818 22.8785 37.6814 22.7184 37.1993C22.5566 36.6388 22.957 36.1616 23.4391 35.9998C29.5168 34.6385 34.7987 35.2006 38.9578 37.7615C39.5183 38.0001 39.5984 38.6391 39.3598 39.1196ZM41.2816 34.7202C40.8796 35.2791 40.1606 35.5193 39.5984 35.119C35.2791 32.4829 28.7209 31.6789 23.6809 33.2804C23.0435 33.4422 22.3196 33.1203 22.1611 32.4829C21.9993 31.839 22.3212 31.1184 22.9602 30.9582C28.7994 29.1997 36.0014 30.0806 40.9597 33.1219C41.4402 33.3605 41.6804 34.1597 41.2816 34.7202ZM41.4402 30.2375C36.3201 27.1994 27.76 26.8791 22.8785 28.4022C22.5073 28.5091 22.1091 28.469 21.7668 28.29C21.4244 28.1111 21.1641 27.8071 21.04 27.4413C20.9311 27.0696 20.9702 26.6702 21.1489 26.3267C21.3277 25.9831 21.6324 25.722 21.9993 25.5979C27.6799 23.9179 37.0408 24.2366 42.9616 27.7616C43.6807 28.1604 43.9209 29.1213 43.5205 29.8403C43.1202 30.4009 42.1609 30.6379 41.4402 30.2375Z" fill="black"/>
</svg>
