<svg width="64" height="64" viewBox="0 0 64 64" fill="none" xmlns="http://www.w3.org/2000/svg">
<circle cx="32" cy="32" r="32" fill="white"/>
<path d="M26.6975 30.9395C28.397 29.24 31.361 29.24 33.0605 30.9395L34.121 32L36.242 29.879L35.1815 28.8185C33.767 27.4025 31.883 26.621 29.879 26.621C27.875 26.621 25.991 27.4025 24.5765 28.8185L21.3935 32C19.9899 33.408 19.2018 35.3151 19.2018 37.3032C19.2018 39.2913 19.9899 41.1984 21.3935 42.6065C22.0893 43.3033 22.9159 43.8557 23.8259 44.2321C24.7359 44.6084 25.7112 44.8012 26.696 44.7995C27.681 44.8015 28.6566 44.6088 29.5669 44.2325C30.4772 43.8561 31.304 43.3035 32 42.6065L33.0605 41.546L30.9395 39.425L29.879 40.4855C29.0337 41.327 27.8895 41.7994 26.6967 41.7994C25.504 41.7994 24.3598 41.327 23.5145 40.4855C22.6722 39.6406 22.1993 38.4962 22.1993 37.3032C22.1993 36.1102 22.6722 34.9659 23.5145 34.121L26.6975 30.9395Z" fill="black"/>
<path d="M32 21.3935L30.9395 22.454L33.0605 24.575L34.121 23.5145C34.9663 22.673 36.1105 22.2005 37.3032 22.2005C38.496 22.2005 39.6402 22.673 40.4855 23.5145C41.3277 24.3594 41.8007 25.5037 41.8007 26.6967C41.8007 27.8897 41.3277 29.0341 40.4855 29.879L37.3025 33.0605C35.603 34.76 32.639 34.76 30.9395 33.0605L29.879 32L27.758 34.121L28.8185 35.1815C30.233 36.5975 32.117 37.379 34.121 37.379C36.125 37.379 38.009 36.5975 39.4235 35.1815L42.6065 32C44.0101 30.5919 44.7982 28.6849 44.7982 26.6967C44.7982 24.7086 44.0101 22.8016 42.6065 21.3935C41.1988 19.9892 39.2916 19.2006 37.3032 19.2006C35.3149 19.2006 33.4077 19.9892 32 21.3935Z" fill="black"/>
</svg>
