<svg width="64" height="64" viewBox="0 0 64 64" fill="none" xmlns="http://www.w3.org/2000/svg">
<circle cx="32" cy="32" r="32" fill="white"/>
<path d="M48.3083 23.7733C48.1148 23.0495 47.7367 22.3894 47.2115 21.8587C46.6864 21.328 46.0325 20.9452 45.3151 20.7485C42.6547 20.012 32.0118 20 32.0118 20C32.0118 20 21.3705 19.988 18.7085 20.692C17.9915 20.8978 17.3389 21.286 16.8136 21.8193C16.2882 22.3526 15.9076 23.0131 15.7084 23.7374C15.0068 26.4196 15 31.9829 15 31.9829C15 31.9829 14.9932 37.5735 15.6897 40.2284C16.0804 41.6963 17.2271 42.8558 18.6847 43.2515C21.3722 43.988 31.9863 44 31.9863 44C31.9863 44 42.6293 44.012 45.2896 43.3097C46.0073 43.1133 46.6618 42.7315 47.1882 42.2018C47.7147 41.6722 48.0949 41.0132 48.2914 40.29C48.9947 37.6095 48.9997 32.048 48.9997 32.048C48.9997 32.048 49.0337 26.4556 48.3083 23.7733ZM28.6074 37.1367L28.6159 26.8598L37.4615 32.0069L28.6074 37.1367Z" fill="black"/>
</svg>
